HIERARCHY
ROOT Hips
{
	OFFSET -3.958830 18.904000 13.208200
	CHANNELS 6 Xposition Yposition Zposition Zrotation Yrotation Xrotation 
	JOINT LHipJoint
	{
		OFFSET 0.000000 0.000000 0.000000
		CHANNELS 3 Zrotation Yrotation Xrotation
		JOINT LeftUpLeg
		{
			OFFSET 1.800000 -1.400000 0.085000
			CHANNELS 3 Zrotation Yrotation Xrotation
			JOINT LeftLeg
			{
				OFFSET 2.215000 -6.000000 0.000000
				CHANNELS 3 Zrotation Yrotation Xrotation
				JOINT LeftFoot
				{
					OFFSET 2.500000 -6.900000 0.000000
					CHANNELS 3 Zrotation Yrotation Xrotation
					JOINT LeftToeBase
					{
						OFFSET 0.200000 -0.500000 1.950000
						CHANNELS 3 Zrotation Yrotation Xrotation
						End Site
						{
							OFFSET 0.000000 0.000000 0.000000
						}
					}
				}
			}
		}
	}
	JOINT RHipJoint
	{
		OFFSET 0.000000 0.000000 0.000000
		CHANNELS 3 Zrotation Yrotation Xrotation
		JOINT RightUpLeg
		{
			OFFSET -1.800000 -1.400000 0.085000
			CHANNELS 3 Zrotation Yrotation Xrotation
			JOINT RightLeg
			{
				OFFSET -2.215000 -6.000000 0.000000
				CHANNELS 3 Zrotation Yrotation Xrotation
				JOINT RightFoot
				{
					OFFSET -2.500000 -6.900000 0.000000
					CHANNELS 3 Zrotation Yrotation Xrotation
					JOINT RightToeBase
					{
						OFFSET -0.200000 -0.500000 1.950000
						CHANNELS 3 Zrotation Yrotation Xrotation
						End Site
						{
							OFFSET 0.000000 0.000000 0.000000
						}
					}
				}
			}
		}
	}
	JOINT LowerBack
	{
		OFFSET 0.000000 0.000000 0.000000
		CHANNELS 3 Zrotation Yrotation Xrotation
		JOINT Spine
		{
			OFFSET -0.087000 1.940000 -0.288900
			CHANNELS 3 Zrotation Yrotation Xrotation
			JOINT Spine1
			{
				OFFSET 0.000000 1.950000 0.060000
				CHANNELS 3 Zrotation Yrotation Xrotation
				JOINT Neck
				{
					OFFSET 0.000000 0.000000 0.000000
					CHANNELS 3 Zrotation Yrotation Xrotation
					JOINT Neck1
					{
						OFFSET 0.000000 1.600000 0.340000
						CHANNELS 3 Zrotation Yrotation Xrotation
						JOINT Head
						{
							OFFSET 0.000000 1.667000 -0.240000
							CHANNELS 3 Zrotation Yrotation Xrotation
							End Site
							{
								OFFSET 0.000000 0.000000 0.000000
							}
						}
					}
				}
				JOINT LeftShoulder
				{
					OFFSET 0.000000 0.000000 0.000000
					CHANNELS 3 Zrotation Yrotation Xrotation
					JOINT LeftArm
					{
						OFFSET 2.700000 1.550000 -0.730000
						CHANNELS 3 Zrotation Yrotation Xrotation
						JOINT LeftForeArm
						{
							OFFSET 5.450000 0.000000 0.000000
							CHANNELS 3 Zrotation Yrotation Xrotation
							JOINT LeftHand
							{
								OFFSET 3.450000 0.000000 0.000000
								CHANNELS 3 Zrotation Yrotation Xrotation
								JOINT LeftHandIndex1
								{
									OFFSET 0.750000 0.000000 0.000000
									CHANNELS 3 Zrotation Yrotation Xrotation
									End Site
									{
										OFFSET 0.000000 0.000000 0.000000
									}
								}
							}
						}
					}
				}
				JOINT RightShoulder
				{
					OFFSET 0.000000 0.000000 0.000000
					CHANNELS 3 Zrotation Yrotation Xrotation
					JOINT RightArm
					{
						OFFSET -2.700000 1.550000 -0.730000
						CHANNELS 3 Zrotation Yrotation Xrotation
						JOINT RightForeArm
						{
							OFFSET -5.450000 0.000000 0.000000
							CHANNELS 3 Zrotation Yrotation Xrotation
							JOINT RightHand
							{
								OFFSET -3.450000 0.000000 0.000000
								CHANNELS 3 Zrotation Yrotation Xrotation
								JOINT RightHandIndex1
								{
									OFFSET -0.750000 0.000000 0.000000
									CHANNELS 3 Zrotation Yrotation Xrotation
									End Site
									{
										OFFSET 0.000000 0.000000 0.000000
									}
								}
							}
						}
					}
				}
			}
		}
	}
}
MOTION
Frames: 14
Frame Time: 0.016667
0.546550 17.362060 -7.133340 -1.382550 -31.247047 -4.149670 -14.275616 11.643684 4.062281 -8.690881 -4.115490 -33.656351 10.362218 3.859074 44.150190 0.200409 6.160101 2.275864 0.713780 0.706570 0.480150 18.873412 -12.833725 3.381625 -2.961917 0.241256 -6.080166 6.432361 -5.394546 13.364406 -0.589636 -3.877382 2.994674 0.332780 -0.110490 0.207400 -5.811345 3.910120 -8.748374 30.785461 6.405457 25.443758 -5.370899 8.847717 33.264583 6.973582 -4.303311 -27.071443 -7.767246 -4.184427 41.422797 -4.083240 -5.516410 -19.410880 1.089540 -12.762915 3.379107 -25.801675 0.571130 -7.860826 33.371721 -29.405422 -8.107022 -3.374233 3.218102 0.380850 -0.145040 0.338760 0.245520 -11.949022 24.506626 41.513343 -96.179513 68.293648 -147.712429 89.767824 80.648066 125.590320 8.044705 -2.996232 0.136080 0.204290 -0.279010 -0.010540 
0.539890 17.355750 -7.150020 -1.153073 -31.873140 -5.113766 -14.284563 11.693676 4.025484 -9.058616 -3.796508 -33.493805 11.080472 3.755678 44.528196 0.225797 6.223382 2.237836 0.721490 0.720780 0.496690 18.854351 -12.865800 3.385182 -3.377865 0.209253 -5.506598 6.547576 -5.518969 13.708556 -0.612347 -3.978407 2.951010 0.331280 -0.138120 0.226100 -5.802981 3.896750 -8.704912 31.036899 6.584392 26.011071 -4.567992 8.753607 33.210797 6.300988 -3.906029 -27.040540 -7.082963 -4.485687 41.600524 -5.354320 -5.277280 -19.003050 0.265072 -12.832458 3.809247 -21.833180 -1.119227 -3.716417 21.080702 -17.127287 -2.718784 -3.556189 3.120638 0.366240 -0.140550 0.352470 0.233570 -10.110465 23.198895 40.417660 -97.102229 70.349569 -151.616419 87.364598 75.161671 118.021479 5.624527 0.732237 0.161940 0.173450 -0.283770 -0.012680 
0.539560 17.342000 -7.164880 -1.128049 -32.666870 -5.587279 -14.287431 11.767553 4.033916 -9.249257 -3.521141 -33.806732 11.521835 3.761028 44.878872 0.242165 6.289796 2.197857 0.719690 0.713420 0.518410 18.834211 -12.874589 3.395881 -3.539559 0.360545 -5.510387 6.688706 -5.624865 14.388071 -0.616039 -4.023851 2.929671 0.318120 -0.163320 0.240250 -5.777059 3.827812 -8.722679 31.054788 6.910409 26.489044 -3.836663 8.869889 32.333896 5.798228 -3.248425 -26.947531 -5.885978 -4.819482 42.002430 -6.588100 -4.758230 -18.530880 -0.278852 -12.453086 4.075808 -19.313502 -2.443911 -0.890613 11.722248 -8.923963 -0.761506 -3.706519 2.931061 0.363450 -0.135420 0.361490 0.216690 -9.155599 21.509763 39.066445 -98.857879 72.777753 -151.814579 86.901857 75.250662 108.484493 4.176409 4.495221 0.175590 0.143830 -0.286130 -0.025980 
0.534110 17.327170 -7.178820 -1.150398 -33.395105 -5.944985 -14.269663 11.891039 4.060081 -9.331140 -3.201993 -34.290379 12.011903 3.783722 45.396990 0.274765 6.392302 2.147261 0.705600 0.689450 0.536460 18.819297 -12.877038 3.422709 -3.633758 0.578214 -5.622052 6.828930 -5.718810 15.159349 -0.621798 -4.037762 2.915039 0.291230 -0.190030 0.253780 -5.761643 3.677557 -8.803881 31.139772 7.121904 27.317401 -3.790204 9.326003 30.820904 5.470848 -2.485049 -27.013068 -4.573521 -5.320223 42.773749 -7.457360 -4.378320 -18.313820 -0.551626 -12.088591 4.226440 -17.983558 -3.024137 0.410973 6.049493 -3.695943 -0.310356 -3.801600 2.783892 0.374480 -0.142280 0.382190 0.200100 -9.165831 20.134563 37.945785 -102.426914 75.200401 -147.824293 79.714434 83.205242 96.775980 3.979065 8.600957 0.185240 0.119120 -0.287030 -0.037510 
0.531300 17.320840 -7.191840 -1.238654 -34.421745 -6.617330 -14.215696 12.088767 4.040159 -9.172586 -2.607416 -34.065723 12.411544 3.845471 45.484120 0.310351 6.386649 2.126099 0.716150 0.693410 0.565810 18.808536 -12.949465 3.500971 -3.658145 0.737384 -5.490037 6.782103 -5.775114 15.949396 -0.639453 -4.058716 2.893877 0.268530 -0.240030 0.266570 -5.802656 3.539042 -8.940322 31.488883 6.951482 28.681246 -4.276881 9.690321 29.620997 5.488559 -1.918431 -27.443081 -3.692936 -5.419527 43.704879 -7.660650 -3.908940 -18.366550 -0.587694 -11.866344 4.404501 -17.220353 -2.771696 0.874094 2.506449 0.004111 -0.297276 -3.829637 2.733103 0.384130 -0.167830 0.410320 0.184220 -9.960102 19.391012 37.723275 -105.049199 76.394545 -146.018314 70.285659 89.471761 89.666973 4.724329 8.778191 0.216620 0.070760 -0.304970 -0.046220 
0.532450 17.316440 -7.201370 -1.350677 -34.499481 -7.269419 -14.155530 12.235445 4.062649 -9.332516 -2.356151 -33.613934 13.081919 3.587553 45.385881 0.325389 6.341602 2.133167 0.715820 0.684460 0.579700 18.817346 -12.986089 3.565479 -3.802137 0.866532 -5.234202 7.000901 -5.905504 16.622912 -0.658301 -4.104431 2.878412 0.249440 -0.275200 0.263820 -5.872858 3.377998 -9.085313 31.968116 6.604573 29.911333 -4.443160 9.879675 27.903893 5.437168 -1.549880 -27.694782 -3.204404 -5.609061 44.686143 -7.837960 -3.735060 -18.636710 -1.039484 -12.159165 4.693044 -16.761881 -2.544665 1.050075 0.584338 2.555404 -0.388207 -3.819114 2.707939 0.408700 -0.193000 0.431910 0.178690 -10.150457 19.227420 36.755699 -107.497801 78.545426 -148.196961 -111.950209 89.384392 -93.215197 5.218439 7.674536 0.222410 0.049560 -0.318330 -0.056790 
0.534570 17.308950 -7.207260 -1.650246 -34.186189 -7.710143 -14.092532 12.270123 4.053693 -9.589006 -2.234329 -33.149964 14.050497 3.129231 45.379980 0.343866 6.332706 2.130345 0.710030 0.665480 0.584170 18.861442 -13.023570 3.609718 -3.966052 1.017047 -4.965641 7.514413 -6.120485 17.218011 -0.684535 -4.199147 2.835063 0.228340 -0.296720 0.274800 -6.056653 3.409587 -9.125898 33.031878 6.242547 30.319619 -4.701034 9.878777 26.594455 5.318808 -1.287460 -27.666425 -2.762154 -5.904236 45.444125 -7.785720 -3.893580 -18.707130 -1.435316 -12.788788 5.178085 -16.454578 -2.030363 1.051767 -0.530565 4.031477 -0.503527 -3.807581 2.715265 0.423920 -0.209910 0.444330 0.167980 -9.962991 19.409466 35.433043 -109.725647 81.136505 -152.039262 -110.596110 89.990223 -91.484776 5.121044 6.908367 0.232750 0.024980 -0.315830 -0.062570 
0.529510 17.294960 -7.209880 -2.007433 -33.364551 -7.962196 -14.022427 12.221356 4.021186 -9.886510 -2.166947 -32.679216 15.201484 2.555803 45.327151 0.349831 6.326000 2.130076 0.711290 0.668020 0.585810 18.933541 -13.085109 3.638955 -3.990764 1.247173 -4.961014 8.129580 -6.395874 18.191479 -0.709665 -4.332273 2.783353 0.230530 -0.301140 0.274440 -6.310888 3.639290 -9.104581 34.126187 6.246251 29.868603 -4.473122 9.850665 25.768839 5.032673 -0.910310 -27.323650 -1.744373 -6.192081 45.653036 -7.439680 -3.869320 -18.764130 -1.371018 -13.404381 5.511023 -16.518351 -2.263311 1.123102 -0.952351 5.166820 -0.557869 -3.819014 2.714515 0.425890 -0.212610 0.445770 0.163970 -9.732879 19.605219 33.824855 -112.182876 84.262615 -155.550182 -110.786468 89.245833 -90.026388 4.934296 6.062206 0.233060 0.020450 -0.315510 -0.064890 
0.522280 17.288620 -7.216540 -2.043604 -32.596370 -8.487828 -13.955399 12.207844 4.025739 -10.204592 -2.189399 -32.043242 15.762524 2.209021 45.042208 0.350896 6.264042 2.148455 0.705800 0.657580 0.593910 18.991775 -13.105272 3.701182 -4.344840 1.090602 -4.039974 8.907555 -6.574678 17.380360 -0.737362 -4.409987 2.763566 0.218540 -0.315790 0.270100 -6.521253 3.693147 -9.180243 34.721985 6.215286 30.125824 -4.103046 9.945648 24.318461 4.808056 -0.691060 -27.103392 -1.223226 -6.364795 46.482792 -7.494700 -3.795380 -18.898910 -1.521562 -14.348312 6.068140 -16.410921 -2.293484 1.177477 -1.684530 5.915118 -0.646352 -3.795046 2.721915 0.435950 -0.223400 0.452140 0.153160 -9.566607 20.199054 31.696119 -115.971730 88.379619 -160.640176 -110.686856 88.619535 -89.262126 4.941938 4.995418 0.234060 0.015040 -0.314220 -0.072510 
0.524120 17.287150 -7.226970 -2.257052 -32.566969 -8.823119 -13.938963 12.227659 3.980241 -10.071681 -2.042377 -31.644159 15.897774 2.154057 44.935770 0.336281 6.241626 2.149254 0.719060 0.669170 0.620450 19.002638 -13.102741 3.742757 -4.578206 1.130817 -3.499968 9.665547 -6.747347 17.094909 -0.770547 -4.487888 2.730933 0.225810 -0.343820 0.268740 -6.579571 3.689274 -9.170344 35.332072 5.949352 30.145621 -4.472126 9.760579 24.323563 5.063515 -0.569749 -27.132919 -1.080827 -6.528688 46.681327 -8.344160 -3.620510 -19.543520 -1.741017 -14.398305 6.084903 -15.902678 -2.377557 1.275993 -2.897348 7.003462 -0.823951 -3.786503 2.698692 0.453570 -0.237120 0.470420 0.145570 -9.952224 20.060556 31.745904 -115.949132 88.259453 -161.248918 -112.111079 88.284253 -89.709457 4.999707 4.959252 0.233220 0.012100 -0.323790 -0.086430 
0.519720 17.291980 -7.234190 -2.561428 -32.445039 -9.224440 -13.909470 12.273467 3.922194 -9.870412 -1.827444 -30.998741 16.056510 2.073485 44.610877 0.308343 6.202525 2.160671 0.717540 0.658670 0.630140 19.020679 -13.114855 3.793638 -4.591148 1.143596 -2.932477 10.202718 -6.905017 17.045954 -0.797930 -4.571173 2.698160 0.223490 -0.348330 0.272760 -6.660831 3.661979 -9.179857 35.946511 5.526794 30.336340 -4.651632 9.399217 24.428414 5.244091 -0.778196 -27.218486 -1.526125 -6.397813 46.786652 -8.712870 -3.599780 -20.038600 -1.776784 -14.422917 6.106280 -16.118793 -2.242677 1.293551 -3.657762 7.487619 -0.962574 -3.783489 2.685277 0.470200 -0.240310 0.473610 0.133260 -10.262178 20.032057 31.785004 -116.180543 88.304154 -162.305678 -113.063375 88.263452 -90.377876 5.098782 4.971905 0.226580 0.017470 -0.312040 -0.098300 
0.516120 17.295580 -7.244550 -2.511120 -32.298836 -9.890579 -13.868871 12.309164 3.899251 -9.915466 -1.659148 -30.342252 16.201680 2.038292 44.469261 0.255760 6.223486 2.166266 0.705640 0.633280 0.632400 19.041551 -13.157724 3.830674 -4.881447 1.228946 -2.536891 10.539244 -7.063866 17.347015 -0.812081 -4.654638 2.676654 0.233360 -0.326940 0.253000 -6.770415 3.682193 -9.229044 36.289859 5.231028 30.934050 -4.633591 9.226738 24.268526 5.249197 -1.052489 -27.171002 -1.974881 -6.203564 46.923813 -8.622400 -3.706750 -20.672260 -1.525659 -14.391827 6.092950 -16.515790 -2.230287 1.311111 -4.171062 6.992158 -1.055703 -3.768542 2.640779 0.504130 -0.237320 0.462560 0.127600 -10.615133 20.044588 31.157226 -117.476519 89.464158 -164.646863 -114.126206 88.028676 -91.903743 5.256868 4.838199 0.180110 0.066630 -0.291850 -0.118540 
0.505040 17.293620 -7.258820 -2.634606 -31.521679 -10.292545 -13.885135 12.161045 3.839496 -9.900450 -1.658711 -30.068374 16.569029 1.856834 44.698429 0.245846 6.273510 2.160864 0.701140 0.623250 0.639320 19.052945 -13.264969 3.826776 -4.690481 1.116519 -2.185901 10.452343 -7.162335 17.657750 -0.842115 -4.722799 2.654226 0.233780 -0.329170 0.237460 -6.759834 4.169346 -9.166187 36.831723 6.561137 30.120625 -1.841687 10.611818 22.730226 4.528376 -1.335841 -24.871138 -1.552056 -6.489993 47.877152 -8.407380 -3.863040 -21.297850 -2.157026 -18.584356 8.434216 -16.805033 -2.217657 1.248448 -4.916675 5.668494 -1.105300 -3.697052 2.675733 0.527340 -0.250320 0.466710 0.122080 -7.786389 25.497141 22.977055 47.682196 74.284336 4.603073 -112.299702 82.517364 -93.549463 4.627457 2.925380 0.161020 0.089730 -0.287420 -0.128230 
0.488350 17.288930 -7.272680 -2.398154 -30.933508 -10.519327 -14.115155 12.035905 3.695930 -9.861672 -1.678600 -30.095210 16.631607 1.863203 44.915234 0.231514 6.358069 2.155949 0.692690 0.605070 0.640770 18.895281 -13.187183 3.690856 -4.568855 1.084999 -2.045470 10.412922 -7.245174 17.974783 -0.853699 -4.775654 2.632396 0.236980 -0.314380 0.224720 -6.105134 4.247904 -8.803568 35.304044 8.151613 27.621602 0.931696 11.195000 24.677787 4.069224 -1.579375 -22.896488 -1.136317 -6.746055 47.857249 -8.273240 -3.973980 -21.176300 -2.088315 -20.933406 9.885383 -17.182567 -2.338646 1.205450 -5.748521 3.497631 -1.085902 -3.679951 2.634853 0.542120 -0.247050 0.455990 0.118420 -5.339545 29.237928 19.495457 39.650213 64.797910 2.772974 -111.614975 77.722070 -96.542966 3.957935 2.544787 0.134790 0.114550 -0.277640 -0.137980 
